<svg width="44" height="40" viewBox="0 0 44 40" fill="none" xmlns="http://www.w3.org/2000/svg">
<path d="M29.3333 28.6667L37 21L39 14.3333L29.3333 24V28.6667Z" fill="black"/>
<path d="M2 6.66667L19.3333 24V28.6667L21.6667 26.3333L24.3333 29V33.6667L26.6667 31.3333L31.5133 36.18L32.8333 32.8333L0 0L2 6.66667Z" fill="black"/>
<path d="M6.33334 21L14.3333 29L10.5 32.8333L11.82 36.18L16.6667 31.3333L19.3333 34L13.3333 40H18L21.6667 36.3333L25.3333 40H30L4.33334 14.3333L6.33334 21Z" fill="black"/>
<path d="M24.3333 19V23.6667L41.3333 6.66667L43.3333 0L24.3333 19Z" fill="black"/>
</svg>
