<svg width="270" height="93" viewBox="0 0 270 93" fill="none" xmlns="http://www.w3.org/2000/svg">
<path d="M66.8492 65.878L84.3212 48.3958L88.8791 33.1939L66.8492 55.2367V65.878Z" fill="#FF9F59"/>
<path d="M4.5579 15.7117L44.0597 55.2367V65.878L49.3773 60.5573L55.4545 66.6381V77.2794L60.772 71.9588L71.8173 83.0106L74.8255 75.3792L0 0.509766L4.5579 15.7117Z" fill="#FF9F59"/>
<path d="M14.4334 48.3958L32.665 66.6381L23.929 75.3792L26.9372 83.0106L37.9825 71.9588L44.0597 78.0395L30.386 91.7213H41.0211L49.3773 83.3602L57.7334 91.7213H68.3685L9.87546 33.1939L14.4334 48.3958Z" fill="#FF9F59"/>
<path d="M55.4545 43.8352V54.4766L94.1966 15.7117L98.7545 0.509766L55.4545 43.8352Z" fill="#FF9F59"/>
<path d="M128.959 27.7282V6.03122H136.886V0.509766H115.241V6.03122H123.207V27.7282H128.959Z" fill="#FF9F59"/>
<path d="M126.167 60.115C133.861 60.115 139.613 54.8268 139.613 47.0113C139.613 46.0003 139.535 44.6394 139.379 43.8617H126.136V49.422H133.667C132.773 52.4938 130.092 54.5158 126.594 54.5158C121.698 54.5158 118.317 50.8996 118.317 46.1169C118.317 41.3343 121.698 37.7181 126.167 37.7181C129.004 37.7181 131.724 39.1957 132.579 41.5287H139.107C138.291 36.5516 132.657 32.1189 126.167 32.1189C118.317 32.1189 112.41 38.1458 112.41 46.1169C112.41 54.088 118.317 60.115 126.167 60.115Z" fill="#FF9F59"/>
<path d="M154.944 32.5077H150.28L139.516 59.7262H145.617L147.366 55.1768H157.819L159.529 59.7262H165.786L154.944 32.5077ZM149.309 50.1608L152.612 41.5287L155.876 50.1608H149.309Z" fill="#FF9F59"/>
<path d="M128.316 64.5057H123.653L112.889 91.7241H118.99L120.738 87.1747H131.192L132.902 91.7241H139.158L128.316 64.5057ZM122.681 82.1588L125.985 73.5266L129.249 82.1588H122.681Z" fill="#FF9F59"/>
<path d="M169.832 64.5056L162.825 82.0032L157.19 64.5056H152.565L146.931 82.0032L139.846 64.5056H133.706L144.482 91.7241H149.146L154.819 74.2265L160.532 91.7241H165.156L175.855 64.5056H169.832Z" fill="#FF9F59"/>
<path d="M185.947 64.5057H181.284L170.519 91.7241H176.62L178.369 87.1748H188.823L190.533 91.7241H196.789L185.947 64.5057ZM180.312 82.1588L183.615 73.5267L186.88 82.1588H180.312Z" fill="#FF9F59"/>
<path d="M199.181 91.7241H204.932V81.3423H207.886L214.026 91.7241H221.021L213.87 80.4479C216.591 79.1259 218.223 76.4429 218.223 72.9045C218.223 68.2385 214.22 64.5057 209.635 64.5057H199.181V91.7241ZM204.932 75.8208V70.066H209.479C211.15 70.066 212.433 71.2714 212.433 72.9045C212.433 74.5376 211.15 75.8208 209.479 75.8208H204.932Z" fill="#FF9F59"/>
<path d="M232.492 64.5057H223.165V91.7241H232.492C240.303 91.7241 246.249 85.8916 246.249 77.9983C246.249 70.2605 240.303 64.5057 232.492 64.5057ZM228.917 86.2027V70.0272H232.881C237.233 70.0272 240.342 73.3711 240.342 77.9983C240.342 82.7032 237.194 86.2027 232.881 86.2027H228.917Z" fill="#FF9F59"/>
<path d="M259.091 92.113C264.843 92.113 269.078 88.5357 269.078 83.7141C269.078 73.3323 254.7 76.6374 254.7 72.1269C254.7 70.5326 256.06 69.5606 258.236 69.5606C260.723 69.5606 262.239 71.1159 262.278 73.1767H268.223C268.223 68.3941 265.153 64.1169 258.431 64.1169C253.068 64.1169 249.065 67.4997 249.065 72.1658C249.065 82.1199 263.366 78.8926 263.366 83.7141C263.366 85.5028 261.617 86.6693 259.091 86.6693C256.371 86.6693 254.467 85.114 254.467 82.7032H248.793C248.793 88.1469 253.145 92.113 259.091 92.113Z" fill="#FF9F59"/>
<path d="M201.774 32.5077V59.7262H218.407V54.2047H207.526V48.45H217.241V42.9285H207.526V38.0292H218.407V32.5077H201.774Z" fill="#FF9F59"/>
<path d="M158.233 0.509766V10.8917H146.653V0.509766H140.902V27.7282H146.653V16.4131H158.233V27.7282H163.985V0.509766H158.233Z" fill="#FF9F59"/>
<path d="M168.112 59.7262H173.863V43.745L180.625 59.7262H184.822L191.739 43.745V59.7262H197.529V32.5077H191.623L183.151 51.2496L175.107 32.5077H168.112V59.7262Z" fill="#FF9F59"/>
<path d="M168.112 0.509766V27.7282H184.744V22.2067H173.863V16.452H183.578V10.9305H173.863V6.03122H184.744V0.509766H168.112Z" fill="#FF9F59"/>
</svg>
